<svg width="56" height="56" viewBox="0 0 56 56" fill="none" xmlns="http://www.w3.org/2000/svg">
<g clip-path="url(#clip0_99_2398)">
<path d="M55.095 31.0147C53.7244 28.7029 51.7719 26.7658 49.4494 25.4131C47.0538 24.0186 44.3152 23.2811 41.5291 23.2811C38.743 23.2811 36.0044 24.0186 33.6088 25.4131C31.2863 26.7658 29.3342 28.7029 27.9632 31.0147C26.7742 33.0211 26.7562 35.4333 27.9158 37.4683C29.0868 39.5246 31.1962 40.7517 33.5576 40.7517H49.5007C51.8625 40.7517 53.9714 39.5242 55.1429 37.4683C56.302 35.4333 56.2841 33.0211 55.095 31.0147Z" fill="#6FB663"/>
<path d="M49.45 25.4113C47.0549 24.0164 44.3158 23.2789 41.5297 23.2789C41.5297 23.2789 41.5297 23.2789 41.5293 23.2789V40.7499H49.5013C51.8631 40.7499 53.972 39.5224 55.1431 37.4665C56.3026 35.4315 56.2847 33.0189 55.0956 31.0129C53.725 28.7007 51.7725 26.7636 49.45 25.4113Z" fill="url(#paint0_linear_99_2398)"/>
<path d="M47.7878 11.5925C46.116 9.92072 43.8934 9 41.5291 9C39.1647 9 36.9421 9.92072 35.2708 11.5925C33.5989 13.2643 32.6782 15.4869 32.6782 17.8508C32.6782 20.2152 33.5989 22.4377 35.2708 24.1096C36.9421 25.7814 39.1647 26.7021 41.5291 26.7021C43.8934 26.7021 46.116 25.7814 47.7878 24.1096C49.4596 22.4377 50.3803 20.2152 50.3803 17.8508C50.3803 15.4869 49.4596 13.2643 47.7878 11.5925Z" fill="#FFD2BF"/>
<path d="M47.7885 11.5905C46.0628 9.86481 43.7963 9.0022 41.5293 9.0022V26.6957H41.5297C43.7963 26.6957 46.0628 25.8331 47.7885 24.1075C51.2393 20.6566 51.2393 15.0413 47.7885 11.5905Z" fill="#FFB89C"/>
<path d="M28.0364 31.0147C26.6658 28.7029 24.7133 26.7658 22.3908 25.4131C19.9957 24.0186 17.2566 23.2811 14.4705 23.2811C11.6844 23.2811 8.9458 24.0186 6.55023 25.4131C4.22772 26.7658 2.27563 28.7029 0.904597 31.0147C-0.284429 33.0206 -0.302373 35.4333 0.857173 37.4683C2.02825 39.5242 4.13757 40.7517 6.49896 40.7517H22.4425C24.8039 40.7517 26.9128 39.5246 28.0843 37.4683C29.2434 35.4337 29.2255 33.0211 28.0364 31.0147Z" fill="url(#paint1_linear_99_2398)"/>
<path d="M22.3914 25.4113C19.9963 24.0164 17.2572 23.2789 14.4711 23.2789C14.4711 23.2789 14.4711 23.2789 14.4707 23.2789V40.7499H22.4427C24.8045 40.7499 26.9134 39.5224 28.0845 37.4665C29.244 35.4315 29.2261 33.0189 28.037 31.0129C26.6664 28.7007 24.7139 26.7636 22.3914 25.4113Z" fill="#6FB364"/>
<path d="M20.7292 11.5925C19.0574 9.92072 16.8348 9 14.4705 9C12.1065 9 9.88355 9.92072 8.21216 11.5925C6.54034 13.2643 5.61963 15.4869 5.61963 17.8508C5.61963 20.2152 6.54034 22.4377 8.21216 24.1096C9.88355 25.7814 12.1065 26.7021 14.4705 26.7021C16.8348 26.7021 19.0574 25.7814 20.7292 24.1096C22.401 22.4377 23.3217 20.2152 23.3217 17.8508C23.3217 15.4869 22.401 13.2643 20.7292 11.5925Z" fill="#FFD2BF"/>
<path d="M20.7299 11.5905C19.0042 9.86481 16.7377 9.0022 14.4707 9.0022V26.6957H14.4711C16.7377 26.6957 19.0042 25.8331 20.7299 24.1075C24.1807 20.6566 24.1807 15.0413 20.7299 11.5905Z" fill="#FFB89C"/>
<path d="M41.5658 38.0399C40.1952 35.7276 38.2431 33.7905 35.9206 32.4382C33.525 31.0433 30.7864 30.3063 28.0003 30.3063C25.2142 30.3063 22.4751 31.0433 20.08 32.4382C17.7575 33.7905 15.805 35.7276 14.4344 38.0399C13.2454 40.0458 13.2274 42.4584 14.387 44.4934C15.558 46.5493 17.6669 47.7768 20.0287 47.7768H35.9718C38.3332 47.7768 40.4425 46.5493 41.6136 44.4934C42.7727 42.4584 42.7552 40.0458 41.5658 38.0399Z" fill="url(#paint2_linear_99_2398)"/>
<path d="M35.9202 32.4383C33.5247 31.0433 30.786 30.3059 27.9999 30.3059H27.9995V47.7769H35.9715C38.3329 47.7769 40.4422 46.5494 41.6133 44.4935C42.7724 42.4585 42.7549 40.0458 41.5654 38.0399C40.1948 35.7277 38.2427 33.7905 35.9202 32.4383Z" fill="url(#paint3_linear_99_2398)"/>
<path d="M34.2589 18.6173C30.8076 15.1665 25.1928 15.1665 21.7415 18.6173C18.2906 22.0682 18.2906 27.6835 21.7415 31.1343C23.4671 32.86 25.7337 33.7226 28.0002 33.7226C30.2667 33.7226 32.5333 32.86 34.2589 31.1343C37.7098 27.6835 37.7098 22.0682 34.2589 18.6173Z" fill="#FFD2BF"/>
<path d="M34.2587 18.6173C32.533 16.8917 30.2661 16.0291 27.9995 16.0291V33.7226H27.9999C30.2665 33.7226 32.533 32.86 34.2587 31.1343C37.7095 27.6835 37.7095 22.0682 34.2587 18.6173Z" fill="#FFB89C"/>
</g>
<defs>
<linearGradient id="paint0_linear_99_2398" x1="48.7647" y1="27.1146" x2="48.7647" y2="46.082" gradientUnits="userSpaceOnUse">
<stop stop-color="#B9DD39"/>
<stop offset="1" stop-color="#0B799D"/>
</linearGradient>
<linearGradient id="paint1_linear_99_2398" x1="14.4704" y1="27.1167" x2="14.4704" y2="46.0837" gradientUnits="userSpaceOnUse">
<stop stop-color="#B9DD39"/>
<stop offset="1" stop-color="#0B799D"/>
</linearGradient>
<linearGradient id="paint2_linear_99_2398" x1="20.3498" y1="33.3811" x2="29.4251" y2="45.6466" gradientUnits="userSpaceOnUse">
<stop stop-color="#FFDA2D"/>
<stop offset="1" stop-color="#FDBF00"/>
</linearGradient>
<linearGradient id="paint3_linear_99_2398" x1="31.4096" y1="33.3808" x2="40.215" y2="39.3312" gradientUnits="userSpaceOnUse">
<stop stop-color="#FFDA2D"/>
<stop offset="1" stop-color="#FDBF00"/>
</linearGradient>
<clipPath id="clip0_99_2398">
<rect width="56" height="56" fill="white"/>
</clipPath>
</defs>
</svg>
