<svg width="56" height="56" viewBox="0 0 56 56" fill="none" xmlns="http://www.w3.org/2000/svg">
<path d="M11.932 41.087L5 50L12.9999 49L14.9999 56L21.9999 47L22.032 46.9589C20.646 45.5599 19.128 44.2989 17.5 43.191C15.7159 42.312 13.851 41.608 11.932 41.087Z" fill="url(#paint0_linear_99_2537)"/>
<path d="M44.0677 41.087C42.1487 41.607 40.2836 42.3101 38.4997 43.187C36.8717 44.294 35.3547 45.556 33.9688 46.955L40.9997 56L42.9997 49L50.9997 50L44.0677 41.087Z" fill="url(#paint1_linear_99_2537)"/>
<path d="M48.9998 25C48.9998 20.8099 51.6108 15.8799 49.6527 12.4999C47.6338 9.009 41.9898 8.83105 38.4998 6.81198C35.1168 4.851 32.1898 0 27.9998 0C23.8097 0 20.8827 4.85198 17.4998 6.80903C14.0087 8.82908 8.36575 9.009 6.34679 12.4971C4.38876 15.88 6.99976 20.81 6.99976 25C6.99976 29.1899 4.38876 34.12 6.34679 37.5C8.36575 40.991 14.0098 41.169 17.4998 43.188C20.8827 45.149 23.8097 50 27.9998 50C32.1898 50 35.1168 45.148 38.4998 43.191C41.9908 41.1709 47.6338 40.991 49.6527 37.5029C51.6108 34.12 48.9998 29.19 48.9998 25Z" fill="url(#paint2_linear_99_2537)"/>
<path d="M28.0001 42C37.3889 42 45.0001 34.3888 45.0001 24.9999C45.0001 15.6111 37.3889 7.99988 28.0001 7.99988C18.6112 7.99988 11 15.6111 11 24.9999C11 34.3888 18.6112 42 28.0001 42Z" fill="url(#paint3_linear_99_2537)"/>
<path d="M37.922 21H31.069L28.951 14.483C28.779 13.958 28.213 13.673 27.689 13.845C27.387 13.944 27.15 14.181 27.051 14.483L24.9311 21H18.0781C17.5261 21 17.0781 21.448 17.0781 22.0001C17.0781 22.3201 17.2311 22.6211 17.4901 22.8091L23.0341 26.8382L20.9161 33.3561C20.7451 33.8811 21.0331 34.4452 21.5581 34.6161C21.8632 34.7151 22.1961 34.6622 22.4551 34.4742L28.0001 30.445L33.5441 34.473C33.9911 34.7979 34.6161 34.6989 34.9411 34.2519C35.1292 33.9929 35.1821 33.6589 35.0831 33.3549L32.9651 26.8369L38.5091 22.8079C38.9551 22.4829 39.0531 21.8569 38.728 21.4108C38.5401 21.1531 38.2411 21.001 37.922 21Z" fill="url(#paint4_linear_99_2537)"/>
<path d="M49.6527 12.5C49.6097 12.425 49.5527 12.361 49.5097 12.29C48.0378 15.092 46.2927 17.7411 44.2998 20.2C46.9538 29.2001 41.8088 38.648 32.8087 41.3021C26.8947 43.0451 20.4998 41.4481 16.0997 37.1281C13.1008 37.7062 10.0537 37.9981 6.99973 38.0002C6.89177 38.0002 6.78677 37.9932 6.67871 37.9922C8.92571 41.0102 14.1787 41.2711 17.4997 43.1922C20.8827 45.1481 23.8097 50.0002 27.9997 50.0002C32.1898 50.0002 35.1168 45.1483 38.4997 43.1912C41.9908 41.1712 47.6337 40.9912 49.6527 37.5032C51.6107 34.1202 48.9997 29.1901 48.9997 25.0002C48.9997 20.8102 51.6107 15.8801 49.6527 12.5Z" fill="url(#paint5_linear_99_2537)"/>
<path d="M33.9118 29.7491L35.0837 33.3551C35.2547 33.8801 34.9667 34.4441 34.4417 34.6151C34.1367 34.714 33.8037 34.6611 33.5447 34.4731L30.1847 32.0311C25.7868 34.463 21.0317 36.184 16.0967 37.1311C22.7836 43.7121 33.5387 43.6261 40.1187 36.9392C44.4527 32.5352 46.0537 26.1251 44.2997 20.2002C41.3237 23.8751 37.8237 27.092 33.9118 29.7491Z" fill="url(#paint6_linear_99_2537)"/>
<path d="M35.084 33.355L33.912 29.749C32.708 30.5661 31.4661 31.327 30.1851 32.031L33.5451 34.473C33.9921 34.798 34.617 34.699 34.9421 34.252C35.13 33.993 35.1829 33.6601 35.084 33.355Z" fill="#F4BB02"/>
<defs>
<linearGradient id="paint0_linear_99_2537" x1="13.5159" y1="44.3611" x2="13.5159" y2="60.5514" gradientUnits="userSpaceOnUse">
<stop stop-color="#B9DD39"/>
<stop offset="1" stop-color="#0B799D"/>
</linearGradient>
<linearGradient id="paint1_linear_99_2537" x1="42.4842" y1="44.3611" x2="42.4842" y2="60.5514" gradientUnits="userSpaceOnUse">
<stop stop-color="#B9DD39"/>
<stop offset="1" stop-color="#0B799D"/>
</linearGradient>
<linearGradient id="paint2_linear_99_2537" x1="27.9995" y1="10.9772" x2="27.9995" y2="65.26" gradientUnits="userSpaceOnUse">
<stop stop-color="#B9DD39"/>
<stop offset="1" stop-color="#0B799D"/>
</linearGradient>
<linearGradient id="paint3_linear_99_2537" x1="20.756" y1="5.00526" x2="46.3904" y2="14.2926" gradientUnits="userSpaceOnUse">
<stop stop-color="#EDF5FF"/>
<stop offset="1" stop-color="#D5E8FE"/>
</linearGradient>
<linearGradient id="paint4_linear_99_2537" x1="22.2252" y1="17.4681" x2="33.422" y2="27.0285" gradientUnits="userSpaceOnUse">
<stop stop-color="#FFA800"/>
<stop offset="1" stop-color="#FF9900"/>
</linearGradient>
<linearGradient id="paint5_linear_99_2537" x1="28.5295" y1="20.5691" x2="28.5295" y2="61.5094" gradientUnits="userSpaceOnUse">
<stop stop-color="#B9DD39"/>
<stop offset="1" stop-color="#0B799D"/>
</linearGradient>
<linearGradient id="paint6_linear_99_2537" x1="24.3899" y1="18.2792" x2="44.4236" y2="27.8971" gradientUnits="userSpaceOnUse">
<stop stop-color="#EDF5FF"/>
<stop offset="1" stop-color="#D5E8FE"/>
</linearGradient>
</defs>
</svg>
