<svg width="56" height="56" viewBox="0 0 56 56" fill="none" xmlns="http://www.w3.org/2000/svg">
<g clip-path="url(#clip0_99_2354)">
<path d="M53.5142 54.9084H2.48574C1.11286 54.9084 0 53.7955 0 52.4226V33.2407C0 31.8679 1.11286 30.755 2.48574 30.755H53.5142C54.8871 30.755 56 31.8679 56 33.2407V52.4226C56 53.7955 54.8871 54.9084 53.5142 54.9084Z" fill="url(#paint0_linear_99_2354)"/>
<path d="M51.0286 51.9138H4.97174C3.84526 51.9138 2.93213 51.0007 2.93213 49.8742V35.7892C2.93213 34.6628 3.84526 33.7496 4.97174 33.7496H51.0284C52.1549 33.7496 53.0681 34.6628 53.0681 35.7892V49.8741C53.0682 51.0007 52.155 51.9138 51.0286 51.9138Z" fill="url(#paint1_linear_99_2354)"/>
<path d="M17.6234 37.4693L35.0624 54.9083H53.5143C54.8872 54.9083 56 53.7955 56 52.4226V47.3968L39.3583 30.755H16.6416V35.507C16.6416 36.3095 17.0273 37.0221 17.6234 37.4693Z" fill="url(#paint2_linear_99_2354)"/>
<path d="M26.6277 54.914H11.5994L6.69436 50.0091C6.34836 49.7968 6.07056 49.4652 6.07056 49.0341C6.07056 48.7223 6.18981 48.4588 6.35759 48.2661L7.13467 47.1601L5.2568 45.2298C4.83351 45.0503 4.63037 44.614 4.63037 44.0661C4.63037 43.4423 5.18214 42.7452 5.94999 42.7452C6.02203 42.7452 6.14259 42.7452 6.31037 42.8172L8.83037 43.6336L8.70981 41.1857C8.73473 40.3929 9.33492 40.0338 10.0058 40.0338C10.5104 40.0338 10.9611 40.2356 11.1643 40.672L13.4785 42.9023L13.7275 42.8171C13.8468 42.7699 13.9673 42.7451 14.0866 42.7451C14.519 42.7451 14.8702 43.0138 15.0878 43.3742L19.0336 47.32L26.6277 54.914Z" fill="url(#paint3_linear_99_2354)"/>
<path d="M38.6389 54.914H23.6106L18.7056 50.0089C18.3596 49.7967 18.0818 49.4651 18.0818 49.034C18.0818 48.7221 18.201 48.4587 18.3688 48.266L19.0332 47.3198L19.1459 47.16L17.268 45.2297C16.8447 45.0502 16.6416 44.6138 16.6416 44.066C16.6416 43.4422 17.1933 42.7451 17.9612 42.7451C18.0333 42.7451 18.1538 42.7451 18.3216 42.8171L20.8416 43.6335L20.721 41.1855C20.746 40.3928 21.3461 40.0337 22.0171 40.0337C22.5216 40.0337 22.971 40.2355 23.1755 40.6719L25.4897 42.9022L25.7374 42.817C25.858 42.7698 25.9786 42.745 26.0978 42.745C26.5302 42.745 26.8815 43.0137 27.099 43.374L38.6389 54.914Z" fill="url(#paint4_linear_99_2354)"/>
<path d="M50.6497 54.914H35.6227L30.7176 50.0089C30.3717 49.7967 30.0925 49.4651 30.0925 49.034C30.0925 48.7221 30.2131 48.4587 30.3809 48.266L31.0453 47.3198L31.158 47.16L29.2788 45.2297C28.8568 45.0502 28.6523 44.6138 28.6523 44.066C28.6523 43.4422 29.2053 42.7451 29.9733 42.7451C30.0453 42.7451 30.1646 42.7451 30.3337 42.8171L32.8537 43.6335L32.7331 41.1855C32.758 40.3928 33.3569 40.0337 34.0291 40.0337C34.5337 40.0337 34.9831 40.2355 35.1875 40.6719L37.5018 42.9022L37.7494 42.817C37.8699 42.7698 37.9892 42.745 38.1098 42.745C38.5422 42.745 38.8921 43.0137 39.1109 43.374L43.0567 47.3198L50.6497 54.914Z" fill="url(#paint5_linear_99_2354)"/>
<path d="M53.0673 45.3189V52.8736C53.0673 54.0006 52.1539 54.914 51.0282 54.914H47.6329L42.7278 50.0089C42.3832 49.7967 42.104 49.4651 42.104 49.034C42.104 48.7221 42.2246 48.4587 42.3924 48.266L43.0568 47.3198L43.1696 47.16L41.2904 45.2297C40.8684 45.0502 40.6641 44.6138 40.6641 44.066C40.6641 43.4422 41.217 42.7451 41.985 42.7451C42.057 42.7451 42.1763 42.7451 42.3441 42.8171L44.8654 43.6335L44.7448 41.1855C44.7684 40.3928 45.3686 40.0337 46.0408 40.0337C46.5454 40.0337 46.9948 40.2355 47.1993 40.6719L49.5122 42.9022L49.7612 42.817C49.8818 42.7698 50.001 42.745 50.1216 42.745C50.554 42.745 50.9039 43.0137 51.1228 43.374L53.0673 45.3189Z" fill="url(#paint6_linear_99_2354)"/>
<path d="M13.7509 48.2903C13.8709 48.4342 13.9428 48.7223 13.9428 48.9863C13.9428 49.7544 13.1747 50.2824 12.4787 50.2824C12.2147 50.2824 11.8307 50.2344 11.5666 49.8264L10.0064 47.4261L8.42229 49.8504C8.20631 50.2104 7.91829 50.2824 7.58218 50.2824C7.00604 50.2824 6.07007 49.8264 6.07007 49.0343C6.07007 48.7223 6.19009 48.4583 6.35809 48.2662L7.94223 46.01L5.44606 45.2899C4.89396 45.1699 4.62988 44.6898 4.62988 44.0658C4.62988 43.4418 5.18198 42.7456 5.95006 42.7456C6.02209 42.7456 6.23533 42.7536 6.40322 42.8256L8.83032 43.6337L8.7102 41.1855C8.73424 40.3935 9.33432 40.0334 10.0063 40.0334C10.6784 40.0334 11.2545 40.3935 11.2785 41.1855L11.1824 43.6818L13.7267 42.8176C13.8467 42.7696 13.9667 42.7456 14.0867 42.7456C14.8309 42.7456 15.3349 43.5377 15.3349 44.2338C15.3349 44.7138 15.0949 45.1699 14.5188 45.2899L12.0705 45.8659L13.7509 48.2903Z" fill="url(#paint7_linear_99_2354)"/>
<path d="M25.7621 48.2903C25.8821 48.4342 25.954 48.7223 25.954 48.9863C25.954 49.7544 25.1859 50.2824 24.4899 50.2824C24.2259 50.2824 23.8419 50.2344 23.5779 49.8264L22.0177 47.4261L20.4335 49.8504C20.2175 50.2104 19.9295 50.2824 19.5934 50.2824C19.0173 50.2824 18.0813 49.8264 18.0813 49.0343C18.0813 48.7223 18.2013 48.4583 18.3693 48.2662L19.9535 46.01L17.4573 45.2899C16.9052 45.1699 16.6411 44.6898 16.6411 44.0658C16.6411 43.4418 17.1932 42.7456 17.9613 42.7456C18.0333 42.7456 18.1533 42.7456 18.3213 42.8176L20.8417 43.6337L20.7215 41.1855C20.7456 40.3935 21.3457 40.0334 22.0177 40.0334C22.6898 40.0334 23.2658 40.3935 23.2899 41.1855L23.1938 43.6818L25.738 42.8176C25.8581 42.7696 25.9781 42.7456 26.0981 42.7456C26.8422 42.7456 27.3462 43.5377 27.3462 44.2338C27.3462 44.7138 27.1062 45.1699 26.5302 45.2899L24.0819 45.8659L25.7621 48.2903Z" fill="url(#paint8_linear_99_2354)"/>
<path d="M37.7738 48.2903C37.8938 48.4342 37.9657 48.7223 37.9657 48.9863C37.9657 49.7544 37.1977 50.2824 36.5016 50.2824C36.2376 50.2824 35.8537 50.2344 35.5896 49.8264L34.0294 47.4261L32.4452 49.8504C32.2293 50.2104 31.9412 50.2824 31.6051 50.2824C31.029 50.2824 30.093 49.8264 30.093 49.0343C30.093 48.7223 30.213 48.4583 30.381 48.2662L31.9652 46.01L29.469 45.2899C28.9169 45.1699 28.6528 44.6898 28.6528 44.0658C28.6528 43.4418 29.2049 42.7456 29.973 42.7456C30.045 42.7456 30.1651 42.7456 30.3331 42.8176L32.8534 43.6337L32.7333 41.1855C32.7573 40.3935 33.3574 40.0334 34.0294 40.0334C34.7015 40.0334 35.2775 40.3935 35.3016 41.1855L35.2055 43.6818L37.7498 42.8176C37.8698 42.7696 37.9898 42.7456 38.1098 42.7456C38.854 42.7456 39.3579 43.5377 39.3579 44.2338C39.3579 44.7138 39.1179 45.1699 38.5419 45.2899L36.0936 45.8659L37.7738 48.2903Z" fill="url(#paint9_linear_99_2354)"/>
<path d="M49.7851 48.2903C49.9051 48.4342 49.977 48.7223 49.977 48.9863C49.977 49.7544 49.2089 50.2824 48.5129 50.2824C48.2489 50.2824 47.8649 50.2344 47.6008 49.8264L46.0406 47.4261L44.4565 49.8504C44.2405 50.2104 43.9525 50.2824 43.6164 50.2824C43.0402 50.2824 42.1043 49.8264 42.1043 49.0343C42.1043 48.7223 42.2243 48.4583 42.3923 48.2662L43.9764 46.01L41.4802 45.2899C40.9281 45.1699 40.6641 44.6898 40.6641 44.0658C40.6641 43.4418 41.2162 42.7456 41.9842 42.7456C42.0563 42.7456 42.1763 42.7456 42.3443 42.8176L44.8646 43.6337L44.7445 41.1855C44.7685 40.3935 45.3686 40.0334 46.0406 40.0334C46.7127 40.0334 47.2888 40.3935 47.3128 41.1855L47.2167 43.6818L49.761 42.8176C49.881 42.7696 50.001 42.7456 50.1211 42.7456C50.8652 42.7456 51.3692 43.5377 51.3692 44.2338C51.3692 44.7138 51.1292 45.1699 50.5531 45.2899L48.1048 45.8659L49.7851 48.2903Z" fill="url(#paint10_linear_99_2354)"/>
<path d="M40.5414 16.0838H35.8086V14.0828C35.8086 9.50638 32.0854 5.78315 27.509 5.78315C22.9325 5.78315 19.2093 9.50638 19.2093 14.0828V16.0838H14.4766V14.0828C14.4766 6.89682 20.3228 1.05042 27.509 1.05042C34.695 1.05042 40.5414 6.89667 40.5414 14.0828V16.0838Z" fill="url(#paint11_linear_99_2354)"/>
<path d="M27.5092 3.61304C21.548 3.61304 16.6982 8.46282 16.6982 14.424V16.0838H19.2096V14.0828C19.2096 9.50641 22.9328 5.78318 27.5092 5.78318C32.0857 5.78318 35.8089 9.50641 35.8089 14.0828V16.0838H38.3202V14.424C38.3202 8.46282 33.4703 3.61304 27.5092 3.61304Z" fill="url(#paint12_linear_99_2354)"/>
<path d="M40.0167 40H15.9831C14.1559 40 12.6748 38.5187 12.6748 36.6917V18.3015C12.6748 16.4744 14.156 14.9933 15.9831 14.9933H40.0168C41.844 14.9933 43.3251 16.4745 43.3251 18.3015V36.6917C43.3251 38.5187 41.8438 40 40.0167 40Z" fill="url(#paint13_linear_99_2354)"/>
<path d="M33.8758 25.1395C33.8758 21.8949 31.2453 19.2644 28.0006 19.2644C24.7559 19.2644 22.1255 21.8949 22.1255 25.1395C22.1255 27.4367 23.4446 29.4244 25.3659 30.3905V33.0942C25.3659 34.5493 26.5455 35.7289 28.0006 35.7289C29.4558 35.7289 30.6354 34.5493 30.6354 33.0942V30.3905C32.5568 29.4244 33.8758 27.4367 33.8758 25.1395Z" fill="url(#paint14_linear_99_2354)"/>
<path d="M27.9995 34.2014C27.389 34.2014 26.8921 33.7046 26.8921 33.0939V29.4486L26.0509 29.0257C24.5711 28.2816 23.6519 26.7926 23.6519 25.1393C23.6519 22.7419 25.6023 20.7916 27.9995 20.7916C30.3968 20.7916 32.3472 22.7421 32.3472 25.1393C32.3472 26.7924 31.4279 28.2816 29.9482 29.0257L29.107 29.4486V33.0939C29.107 33.7046 28.6101 34.2014 27.9995 34.2014Z" fill="url(#paint15_linear_99_2354)"/>
<path d="M12.6748 31.6846V36.6915C12.6748 38.5187 14.156 39.9998 15.9831 39.9998H40.0168C41.844 39.9998 43.3251 38.5186 43.3251 36.6915V31.6846H12.6748Z" fill="url(#paint16_linear_99_2354)"/>
<path d="M0 47.2825V52.4226C0 53.7955 1.11286 54.9084 2.48574 54.9084H53.5142C54.8871 54.9084 56 53.7955 56 52.4226V47.2825H0Z" fill="url(#paint17_linear_99_2354)"/>
</g>
<defs>
<linearGradient id="paint0_linear_99_2354" x1="27.9997" y1="36.0577" x2="27.9997" y2="62.2799" gradientUnits="userSpaceOnUse">
<stop stop-color="#B9DD39"/>
<stop offset="1" stop-color="#0B799D"/>
</linearGradient>
<linearGradient id="paint1_linear_99_2354" x1="17.3182" y1="32.1498" x2="38.699" y2="53.5306" gradientUnits="userSpaceOnUse">
<stop stop-color="#EDF5FF"/>
<stop offset="1" stop-color="#D5E8FE"/>
</linearGradient>
<linearGradient id="paint2_linear_99_2354" x1="39.0752" y1="47.5211" x2="28.3877" y2="25.0478" gradientUnits="userSpaceOnUse">
<stop stop-color="#B5DBFF" stop-opacity="0"/>
<stop offset="0.1734" stop-color="#8FC5E9" stop-opacity="0.173"/>
<stop offset="0.4541" stop-color="#56A4C8" stop-opacity="0.454"/>
<stop offset="0.6955" stop-color="#2D8DB1" stop-opacity="0.696"/>
<stop offset="0.8853" stop-color="#147EA2" stop-opacity="0.885"/>
<stop offset="1" stop-color="#0B799D"/>
</linearGradient>
<linearGradient id="paint3_linear_99_2354" x1="15.5869" y1="50.3208" x2="-12.5886" y2="32.7285" gradientUnits="userSpaceOnUse">
<stop stop-color="#B5DBFF" stop-opacity="0"/>
<stop offset="0.1734" stop-color="#8FC5E9" stop-opacity="0.173"/>
<stop offset="0.4541" stop-color="#56A4C8" stop-opacity="0.454"/>
<stop offset="0.6955" stop-color="#2D8DB1" stop-opacity="0.696"/>
<stop offset="0.8853" stop-color="#147EA2" stop-opacity="0.885"/>
<stop offset="1" stop-color="#0B799D"/>
</linearGradient>
<linearGradient id="paint4_linear_99_2354" x1="26.8511" y1="49.8544" x2="-1.32451" y2="32.2621" gradientUnits="userSpaceOnUse">
<stop stop-color="#B5DBFF" stop-opacity="0"/>
<stop offset="0.1734" stop-color="#8FC5E9" stop-opacity="0.173"/>
<stop offset="0.4541" stop-color="#56A4C8" stop-opacity="0.454"/>
<stop offset="0.6955" stop-color="#2D8DB1" stop-opacity="0.696"/>
<stop offset="0.8853" stop-color="#147EA2" stop-opacity="0.885"/>
<stop offset="1" stop-color="#0B799D"/>
</linearGradient>
<linearGradient id="paint5_linear_99_2354" x1="39.2921" y1="50.1224" x2="11.1169" y2="32.5302" gradientUnits="userSpaceOnUse">
<stop stop-color="#B5DBFF" stop-opacity="0"/>
<stop offset="0.1734" stop-color="#8FC5E9" stop-opacity="0.173"/>
<stop offset="0.4541" stop-color="#56A4C8" stop-opacity="0.454"/>
<stop offset="0.6955" stop-color="#2D8DB1" stop-opacity="0.696"/>
<stop offset="0.8853" stop-color="#147EA2" stop-opacity="0.885"/>
<stop offset="1" stop-color="#0B799D"/>
</linearGradient>
<linearGradient id="paint6_linear_99_2354" x1="48.5149" y1="48.3815" x2="30.5478" y2="37.1632" gradientUnits="userSpaceOnUse">
<stop stop-color="#B5DBFF" stop-opacity="0"/>
<stop offset="0.1734" stop-color="#8FC5E9" stop-opacity="0.173"/>
<stop offset="0.4541" stop-color="#56A4C8" stop-opacity="0.454"/>
<stop offset="0.6955" stop-color="#2D8DB1" stop-opacity="0.696"/>
<stop offset="0.8853" stop-color="#147EA2" stop-opacity="0.885"/>
<stop offset="1" stop-color="#0B799D"/>
</linearGradient>
<linearGradient id="paint7_linear_99_2354" x1="9.98238" y1="42.2835" x2="9.98238" y2="53.4104" gradientUnits="userSpaceOnUse">
<stop stop-color="#B9DD39"/>
<stop offset="1" stop-color="#0B799D"/>
</linearGradient>
<linearGradient id="paint8_linear_99_2354" x1="21.9936" y1="42.2835" x2="21.9936" y2="53.4104" gradientUnits="userSpaceOnUse">
<stop stop-color="#B9DD39"/>
<stop offset="1" stop-color="#0B799D"/>
</linearGradient>
<linearGradient id="paint9_linear_99_2354" x1="34.0053" y1="42.2835" x2="34.0053" y2="53.4104" gradientUnits="userSpaceOnUse">
<stop stop-color="#B9DD39"/>
<stop offset="1" stop-color="#0B799D"/>
</linearGradient>
<linearGradient id="paint10_linear_99_2354" x1="46.0166" y1="42.2835" x2="46.0166" y2="53.4104" gradientUnits="userSpaceOnUse">
<stop stop-color="#B9DD39"/>
<stop offset="1" stop-color="#0B799D"/>
</linearGradient>
<linearGradient id="paint11_linear_99_2354" x1="20.0313" y1="4.91083" x2="32.2253" y2="17.105" gradientUnits="userSpaceOnUse">
<stop stop-color="#EDF5FF"/>
<stop offset="1" stop-color="#B5DBFF"/>
</linearGradient>
<linearGradient id="paint12_linear_99_2354" x1="27.5092" y1="13.6816" x2="27.5092" y2="-15.5567" gradientUnits="userSpaceOnUse">
<stop stop-color="#B5DBFF" stop-opacity="0"/>
<stop offset="0.2428" stop-color="#93CEF6" stop-opacity="0.243"/>
<stop offset="0.5763" stop-color="#6ABFEC" stop-opacity="0.576"/>
<stop offset="0.8403" stop-color="#51B5E5" stop-opacity="0.84"/>
<stop offset="1" stop-color="#48B2E3"/>
</linearGradient>
<linearGradient id="paint13_linear_99_2354" x1="19.8977" y1="19.3945" x2="33.4815" y2="32.9783" gradientUnits="userSpaceOnUse">
<stop stop-color="#FFDA2D"/>
<stop offset="1" stop-color="#FDBF00"/>
</linearGradient>
<linearGradient id="paint14_linear_99_2354" x1="33.9387" y1="32.7636" x2="20.3888" y2="19.2137" gradientUnits="userSpaceOnUse">
<stop stop-color="#FFDA2D"/>
<stop offset="1" stop-color="#FDBF00"/>
</linearGradient>
<linearGradient id="paint15_linear_99_2354" x1="32.6532" y1="31.4801" x2="22.0342" y2="20.8611" gradientUnits="userSpaceOnUse">
<stop stop-color="#0B799D"/>
<stop offset="1" stop-color="#07485E"/>
</linearGradient>
<linearGradient id="paint16_linear_99_2354" x1="28" y1="36.0592" x2="28" y2="40.1505" gradientUnits="userSpaceOnUse">
<stop stop-color="#FF9100" stop-opacity="0"/>
<stop offset="1" stop-color="#FF9100"/>
</linearGradient>
<linearGradient id="paint17_linear_99_2354" x1="28" y1="50.793" x2="28" y2="55.5464" gradientUnits="userSpaceOnUse">
<stop stop-color="#B5DBFF" stop-opacity="0"/>
<stop offset="0.1734" stop-color="#8FC5E9" stop-opacity="0.173"/>
<stop offset="0.4541" stop-color="#56A4C8" stop-opacity="0.454"/>
<stop offset="0.6955" stop-color="#2D8DB1" stop-opacity="0.696"/>
<stop offset="0.8853" stop-color="#147EA2" stop-opacity="0.885"/>
<stop offset="1" stop-color="#0B799D"/>
</linearGradient>
<clipPath id="clip0_99_2354">
<rect width="56" height="56" fill="white"/>
</clipPath>
</defs>
</svg>
