<svg width="56" height="56" viewBox="0 0 56 56" fill="none" xmlns="http://www.w3.org/2000/svg">
<g clip-path="url(#clip0_99_2481)">
<path d="M54.2255 20.9099H1.77435C0.794249 20.9099 0 21.7042 0 22.6843V41.6484C0 42.6281 0.794249 43.4223 1.77435 43.4223C2.65917 43.4223 3.37695 44.1401 3.37695 45.0253V48.7804C3.37695 49.399 4.12548 49.7092 4.56298 49.2713L9.69889 44.1358C10.1556 43.6791 10.7751 43.4223 11.4207 43.4223H54.226C55.2056 43.4223 55.9999 42.6281 55.9999 41.648V22.6838C55.9999 21.7042 55.2056 20.9099 54.2255 20.9099Z" fill="url(#paint0_linear_99_2481)"/>
<path d="M55.9998 40.077V22.6843C55.9998 21.7042 55.2056 20.9099 54.2255 20.9099H36.4067L54.8121 39.3152C55.2201 39.587 55.6183 39.8416 55.9998 40.077Z" fill="url(#paint1_linear_99_2481)"/>
<path d="M4.92432 25.3574H51.0754V27.4676H4.92432V25.3574Z" fill="url(#paint2_linear_99_2481)"/>
<path d="M51.0754 33.3146H4.92432V31.204H51.0754V33.3146Z" fill="url(#paint3_linear_99_2481)"/>
<path d="M4.92432 37.0505H36.4324V39.1611H4.92432V37.0505Z" fill="url(#paint4_linear_99_2481)"/>
<path d="M1.77435 0.000244141H23.8339C24.814 0.000244141 25.6083 0.794495 25.6083 1.7746V10.2717C25.6083 11.2518 24.814 12.046 23.8339 12.046C22.9487 12.046 22.2313 12.7634 22.2313 13.6486V17.4037C22.2313 18.0223 21.4828 18.3325 21.0453 17.895L15.9094 12.7591C15.4526 12.3024 14.8331 12.0456 14.1871 12.0456H1.77435C0.794251 12.0456 0 11.2513 0 10.2717V1.7746C0 0.794495 0.794251 0.000244141 1.77435 0.000244141Z" fill="url(#paint5_linear_99_2481)"/>
<path d="M20.303 5.85461C20.303 6.76123 19.5681 7.49609 18.6615 7.49609C17.7549 7.49609 17.02 6.76123 17.02 5.85461C17.02 4.948 17.7549 4.21313 18.6615 4.21313C19.5681 4.21313 20.303 4.948 20.303 5.85461Z" fill="white"/>
<path d="M14.4456 5.85461C14.4456 6.76123 13.7107 7.49609 12.8041 7.49609C11.8975 7.49609 11.1626 6.76123 11.1626 5.85461C11.1626 4.948 11.8975 4.21313 12.8041 4.21313C13.7107 4.21313 14.4456 4.948 14.4456 5.85461Z" fill="white"/>
<path d="M8.58856 5.85474C8.58856 6.76135 7.8537 7.49622 6.94708 7.49622C6.04047 7.49622 5.30518 6.76135 5.30518 5.85474C5.30518 4.94812 6.04047 4.21326 6.94708 4.21326C7.8537 4.21326 8.58856 4.94812 8.58856 5.85474Z" fill="white"/>
<path d="M49.1123 0.00902827C44.9761 -0.192632 41.55 3.05615 41.4624 7.12695C41.462 7.13592 41.459 7.13592 41.459 7.12695C41.371 3.05615 37.9454 -0.192632 33.8092 0.00902827C29.2667 0.230342 26.2516 4.67327 27.0493 9.15081C28.3908 16.6814 37.6587 21.8661 40.5806 23.3281C41.1352 23.6058 41.7863 23.6058 42.3409 23.3281C45.2628 21.8661 54.5306 16.6814 55.8722 9.15081C56.6698 4.67327 53.6548 0.230342 49.1123 0.00902827Z" fill="url(#paint6_linear_99_2481)"/>
</g>
<defs>
<linearGradient id="paint0_linear_99_2481" x1="22.8997" y1="12.5032" x2="33.5931" y2="53.7293" gradientUnits="userSpaceOnUse">
<stop stop-color="#FFFCF8"/>
<stop offset="0.1875" stop-color="#FAF8F6"/>
<stop offset="0.4041" stop-color="#ECEEF2"/>
<stop offset="0.6353" stop-color="#D5DCEA"/>
<stop offset="0.875" stop-color="#B5C4DF"/>
<stop offset="1" stop-color="#A1B5D8"/>
</linearGradient>
<linearGradient id="paint1_linear_99_2481" x1="49.5624" y1="29.992" x2="41.9278" y2="10.9749" gradientUnits="userSpaceOnUse">
<stop stop-color="#A1B5D8" stop-opacity="0"/>
<stop offset="0.6299" stop-color="#8393A8" stop-opacity="0.631373"/>
<stop offset="1" stop-color="#748290"/>
</linearGradient>
<linearGradient id="paint2_linear_99_2481" x1="27.9996" y1="25.8207" x2="27.9996" y2="28.1116" gradientUnits="userSpaceOnUse">
<stop stop-color="#B9DD39"/>
<stop offset="1" stop-color="#0B799D"/>
</linearGradient>
<linearGradient id="paint3_linear_99_2481" x1="27.9996" y1="31.6673" x2="27.9996" y2="33.9587" gradientUnits="userSpaceOnUse">
<stop stop-color="#B9DD39"/>
<stop offset="1" stop-color="#0B799D"/>
</linearGradient>
<linearGradient id="paint4_linear_99_2481" x1="20.6782" y1="37.5139" x2="20.6782" y2="39.8053" gradientUnits="userSpaceOnUse">
<stop stop-color="#B9DD39"/>
<stop offset="1" stop-color="#0B799D"/>
</linearGradient>
<linearGradient id="paint5_linear_99_2481" x1="12.804" y1="3.97388" x2="12.804" y2="23.6237" gradientUnits="userSpaceOnUse">
<stop stop-color="#B9DD39"/>
<stop offset="1" stop-color="#0B799D"/>
</linearGradient>
<linearGradient id="paint6_linear_99_2481" x1="33.7739" y1="4.1425" x2="46.5586" y2="17.0294" gradientUnits="userSpaceOnUse">
<stop stop-color="#FFB82D"/>
<stop offset="1" stop-color="#FDBF00"/>
</linearGradient>
<clipPath id="clip0_99_2481">
<rect width="56" height="56" fill="white"/>
</clipPath>
</defs>
</svg>
