<svg width="167" height="31" viewBox="0 0 167 31" fill="none" xmlns="http://www.w3.org/2000/svg">
<path d="M8.06 0.310059H22.94C25.0776 0.310059 27.1277 1.15924 28.6393 2.67078C30.1508 4.18232 31 6.23241 31 8.37006V23.2501C31 25.3055 30.1835 27.2767 28.7301 28.7301C27.2767 30.1835 25.3054 31.0001 23.25 31.0001H7.75C5.69457 31.0001 3.72333 30.1835 2.26992 28.7301C0.816514 27.2767 0 25.3055 0 23.2501V8.37006C0 6.23241 0.849177 4.18232 2.36072 2.67078C3.87226 1.15924 5.92236 0.310059 8.06 0.310059Z" fill="#2BB84D"/>
<path d="M7.75 0H23.25C25.3054 0 27.2767 0.816514 28.7301 2.26992C30.1835 3.72333 31 5.69457 31 7.75V10.85C31 12.9054 30.1835 14.8767 28.7301 16.3301C27.2767 17.7835 25.3054 18.6 23.25 18.6H7.75C5.69457 18.6 3.72333 17.7835 2.26992 16.3301C0.816514 14.8767 0 12.9054 0 10.85V7.75C0 5.69457 0.816514 3.72333 2.26992 2.26992C3.72333 0.816514 5.69457 0 7.75 0Z" fill="#E2ECE4"/>
<path d="M7.74995 20.1499C8.05651 20.1499 8.35619 20.2408 8.61109 20.4111C8.86598 20.5814 9.06465 20.8235 9.18197 21.1067C9.29928 21.39 9.32998 21.7016 9.27017 22.0023C9.21036 22.303 9.06274 22.5791 8.84597 22.7959C8.6292 23.0127 8.35301 23.1603 8.05234 23.2201C7.75167 23.2799 7.44002 23.2492 7.15679 23.1319C6.87357 23.0146 6.63149 22.8159 6.46117 22.561C6.29086 22.3061 6.19995 22.0065 6.19995 21.6999C6.19995 21.2888 6.36325 20.8946 6.65393 20.6039C6.94462 20.3132 7.33887 20.1499 7.74995 20.1499Z" fill="#267836"/>
<path d="M23.25 20.1499C23.5565 20.1499 23.8562 20.2408 24.1111 20.4111C24.366 20.5814 24.5646 20.8235 24.682 21.1067C24.7993 21.39 24.83 21.7016 24.7702 22.0023C24.7104 22.303 24.5627 22.5791 24.346 22.7959C24.1292 23.0127 23.853 23.1603 23.5523 23.2201C23.2517 23.2799 22.94 23.2492 22.6568 23.1319C22.3736 23.0146 22.1315 22.8159 21.9612 22.561C21.7909 22.3061 21.7 22.0065 21.7 21.6999C21.7 21.2888 21.8633 20.8946 22.1539 20.6039C22.4446 20.3132 22.8389 20.1499 23.25 20.1499Z" fill="#267836"/>
<path d="M15.5001 21.7C18.068 21.7 20.1501 23.435 20.1501 25.575C20.1501 27.7149 18.0683 29.45 15.5001 29.45C12.9319 29.45 10.8501 27.7155 10.8501 25.575C10.8501 23.4344 12.9319 21.7 15.5001 21.7Z" fill="#71D187"/>
<path d="M13.1752 24.8C13.3285 24.8 13.4784 24.8455 13.6059 24.9307C13.7334 25.0159 13.8328 25.137 13.8915 25.2787C13.9502 25.4203 13.9655 25.5762 13.9356 25.7266C13.9057 25.877 13.8319 26.0151 13.7234 26.1236C13.615 26.232 13.4769 26.3058 13.3265 26.3358C13.1761 26.3657 13.0202 26.3503 12.8785 26.2916C12.7368 26.233 12.6158 26.1336 12.5306 26.0061C12.4454 25.8786 12.3999 25.7287 12.3999 25.5754C12.3999 25.3697 12.4816 25.1725 12.627 25.0271C12.7724 24.8817 12.9696 24.8 13.1752 24.8Z" fill="#019321"/>
<path d="M17.8254 24.8C17.9787 24.8 18.1286 24.8455 18.2561 24.9307C18.3836 25.0159 18.483 25.137 18.5416 25.2787C18.6003 25.4203 18.6157 25.5762 18.5858 25.7266C18.5558 25.877 18.482 26.0151 18.3736 26.1236C18.2651 26.232 18.127 26.3058 17.9766 26.3358C17.8262 26.3657 17.6703 26.3503 17.5287 26.2916C17.387 26.233 17.2659 26.1336 17.1807 26.0061C17.0955 25.8786 17.05 25.7287 17.05 25.5754C17.05 25.3697 17.1317 25.1725 17.2771 25.0271C17.4225 24.8817 17.6197 24.8 17.8254 24.8Z" fill="#019321"/>
<path d="M8.525 12.3999H22.475C22.6805 12.3999 22.8777 12.4816 23.023 12.6269C23.1683 12.7722 23.25 12.9694 23.25 13.1749C23.25 13.3804 23.1683 13.5776 23.023 13.7229C22.8777 13.8682 22.6805 13.9499 22.475 13.9499H8.525C8.31946 13.9499 8.12233 13.8682 7.97699 13.7229C7.83165 13.5776 7.75 13.3804 7.75 13.1749C7.75 12.9694 7.83165 12.7722 7.97699 12.6269C8.12233 12.4816 8.31946 12.3999 8.525 12.3999Z" fill="#005F15"/>
<path d="M15.4998 3.1001C16.7564 3.10017 17.9832 3.48204 19.0178 4.1951C20.0524 4.90815 20.846 5.91873 21.2933 7.09295C21.7406 8.26716 21.8206 9.54958 21.5226 10.7703C21.2247 11.991 20.5629 13.0923 19.6249 13.9284C18.2206 13.9501 17.0841 13.9501 15.4998 13.9501H11.3996C10.4552 13.1172 9.78672 12.0164 9.48325 10.7942C9.17979 9.57199 9.25568 8.28638 9.70084 7.1084C10.146 5.93041 10.9393 4.9159 11.9752 4.19987C13.0112 3.48384 14.2405 3.10024 15.4998 3.1001Z" fill="#FECF03"/>
<path d="M16.74 4.95996V12.71H14.415V8.51969C14.4216 8.45724 14.4141 8.3941 14.393 8.33495C14.3719 8.2758 14.3377 8.22215 14.293 8.178C14.2484 8.13384 14.1944 8.10031 14.135 8.07988C14.0756 8.05944 14.0124 8.05263 13.95 8.05996H12.865C12.865 8.05996 12.8662 7.67355 12.865 7.59496C14.1028 6.99025 15.1688 6.08417 15.965 4.95996C16.1947 4.96105 16.74 4.95996 16.74 4.95996Z" fill="white"/>
<path d="M104.515 25.0753C103.759 26.9592 102.386 27.9008 100.555 27.9008C99.5242 27.9242 98.5213 27.5649 97.7399 26.8924L98.8613 24.8966C99.4333 25.2996 99.8913 25.4791 100.441 25.4791C101.242 25.4791 101.882 25.0535 102.294 24.1566L102.706 23.2592L97.6601 11.535H99.7592C99.7592 11.535 100.375 11.4721 100.67 12.1916C101.532 14.2926 104.033 20.5461 104.033 20.5461C104.033 20.5461 106.408 14.2715 107.171 12.1761C107.419 11.4941 108.156 11.5362 108.156 11.5362H109.993L104.515 25.0753ZM91.7915 13.4813C89.8695 13.4813 88.511 14.6034 88.2136 16.5097H95.1672C95.0756 14.5812 93.7829 13.4815 91.791 13.4815L91.7915 13.4813ZM97.5289 18.4733H88.2134C88.6254 20.3123 90.121 21.4424 92.0433 21.4424C92.6793 21.4506 93.3105 21.3317 93.9 21.0929C94.4894 20.854 95.0253 20.5 95.4763 20.0515L96.8728 21.5096C95.6823 22.7878 93.9433 23.5278 91.8373 23.5278C88.084 23.5278 85.6119 21.0832 85.6119 17.4954C85.6119 13.8839 88.1524 11.4406 91.7688 11.4181C96.049 11.4184 97.8493 14.168 97.5289 18.4734V18.4733ZM81.1287 23.3178V16.772C81.1287 14.9777 80.057 13.8402 78.226 13.8402C76.2121 13.8626 75.0135 15.1732 74.8306 17.0332V23.3176H72.2067V11.9278L74.8306 11.273C74.8306 11.273 74.8294 13.5179 74.8269 13.7644C75.6981 12.104 77.1968 11.4181 79.2562 11.4187C82.094 11.4187 83.7525 13.1383 83.7525 15.9861V23.3176H81.1287V23.3178ZM64.0322 13.6383C61.8352 13.6383 60.3018 15.2079 60.3018 17.4957C60.3018 19.8052 61.8352 21.3747 64.0322 21.3747C66.2067 21.3747 67.7401 19.8052 67.7401 17.4957C67.7395 15.2079 66.2061 13.6383 64.0316 13.6383H64.0322ZM64.0322 23.5273C60.2558 23.5273 57.6699 21.0604 57.6699 17.4726C57.6699 13.8611 60.2558 11.4178 64.0322 11.4178C67.7862 11.4178 70.3717 13.8619 70.3717 17.4726C70.3714 21.0611 67.7857 23.5281 64.0316 23.5281L64.0322 23.5273ZM55.8067 23.317H53.1822V11.7969C53.1822 11.7969 49.5535 18.8457 48.4592 21.0923C48.3803 21.2747 48.253 21.4321 48.0911 21.5474C47.9292 21.6626 47.7389 21.7315 47.5407 21.7464H46.8847C46.8847 21.7464 46.3053 21.7526 45.9662 21.0923C44.8324 18.8805 41.3738 11.7969 41.3738 11.7969V23.3178L38.75 23.3071V7.60962H41.1536C41.3711 7.62159 41.5813 7.69273 41.7613 7.81535C41.9414 7.93796 42.0846 8.10741 42.1755 8.30542C43.371 10.6324 47.2415 18.1684 47.2415 18.1684C47.2415 18.1684 51.1381 10.6186 52.2919 8.2924C52.3826 8.09699 52.525 7.93009 52.7037 7.80975C52.8824 7.68941 53.0906 7.6202 53.3057 7.60962H55.8181L55.8067 23.317Z" fill="#2FAD47"/>
<path d="M162.737 17.1647V23.3182H160.112V11.9277L162.737 11.273L162.723 13.885C163.547 12.2707 165.012 11.4187 166.935 11.4187V13.885C164.486 13.7505 162.943 15.1239 162.737 17.1647ZM152.419 13.4816C150.497 13.4816 149.127 14.7344 148.829 16.6406H155.783C155.691 14.712 154.411 13.4816 152.419 13.4816ZM158.144 18.4735H148.829C149.241 20.3126 150.749 21.4427 152.671 21.4427C153.307 21.4508 153.938 21.3319 154.528 21.0931C155.117 20.8543 155.653 20.5002 156.104 20.0517L157.501 21.5098C156.31 22.7881 154.571 23.528 152.465 23.528C148.712 23.528 146.24 21.0834 146.24 17.4956C146.24 13.8841 148.78 11.4408 152.397 11.4184C156.677 11.4185 158.465 14.1681 158.144 18.4735ZM141.482 23.449H138.727L134.134 11.5354H136.103C136.315 11.5234 136.524 11.5829 136.699 11.7043C136.873 11.8257 137.001 12.002 137.063 12.205C137.848 14.3795 140.17 20.9614 140.17 20.9614C140.17 20.9614 142.549 14.3141 143.305 12.1714C143.363 11.974 143.487 11.8027 143.657 11.6868C143.827 11.5709 144.032 11.5176 144.237 11.5358H146.205L141.482 23.449ZM127.653 13.6389C125.456 13.6389 123.922 15.2084 123.922 17.4962C123.922 19.8057 125.456 21.3753 127.653 21.3753C129.827 21.3753 131.36 19.8057 131.36 17.4962C131.36 15.208 129.827 13.6384 127.653 13.6384L127.653 13.6389ZM127.653 23.5279C123.877 23.5279 121.29 21.0609 121.29 17.4731C121.29 13.8616 123.877 11.4184 127.653 11.4184C131.406 11.4184 133.993 13.8624 133.993 17.4731C133.993 21.0612 131.406 23.5282 127.653 23.5282L127.653 23.5279ZM111.83 23.3175V7.73788H113.929C113.929 7.73788 114.588 7.60722 114.585 8.3926C114.576 11.1253 114.585 21.0922 114.585 21.0922H120.096C120.184 21.0848 120.272 21.0966 120.355 21.1269C120.438 21.1571 120.513 21.205 120.576 21.2672C120.638 21.3295 120.686 21.4046 120.717 21.4873C120.747 21.5701 120.759 21.6584 120.752 21.7463V23.3177H111.83L111.83 23.3175Z" fill="#2FAD47"/>
</svg>
